<svg xmlns="http://www.w3.org/2000/svg" viewBox="0 0 203.8 57.31"><defs><style>.cls-1,.cls-2,.cls-4{fill:#61443b;}.cls-2,.cls-4{font-size:29.46px;font-family:CopperplateNew-BoldMedium, Copperplate New;font-weight:700;}.cls-2{letter-spacing:-0.05em;}.cls-3{letter-spacing:0em;}.cls-5{letter-spacing:-0.11em;}.cls-6{letter-spacing:-0.03em;}</style></defs><title>Asset 4</title><g id="Layer_2" data-name="Layer 2"><g id="Layer_1-2" data-name="Layer 1"><path class="cls-1" d="M54.73,51.78l-1.4-2.35c-2.7-4.51-5.41-9-8.09-13.55,0,0-16.2-7.31-16.57-7.31,0,.06.06.11.08.16q3.77,6.39,7.53,12.78a.73.73,0,0,1,0,.47L25.62,52H54.83Z"/><path class="cls-1" d="M19.15,39.74a.56.56,0,0,0,.1-.15q4-6.37,8-12.75a.59.59,0,0,1,.53-.31S43.46,33.22,44,33.62c-.07-.12-4.07-6.71-5.44-9l0,0L27.5,6.16,15.82,25.66h0l0,.07S18.86,39.41,19.15,39.74Z"/><path class="cls-1" d="M34,41.78l-1.83,0-6,0H23.68l-5.62,0a.3.3,0,0,1-.23-.09S14.43,28,14.46,27.91l-.07.12V28L0,52.05,13.11,52h8.3c.43,0,.87,0,1.3-.07Z"/><path class="cls-1" d="M.68,29.44l0,0L.43,29.1c.25-.06.51,0,.74-.05V29H.41l.3-.33,0,0A2.54,2.54,0,0,0,.21,29C.39,29.18.49,29.37.68,29.44Z"/><path class="cls-1" d="M54.54,29.08l-.3.33,0,0a2.23,2.23,0,0,0,.45-.42c-.17-.14-.27-.33-.46-.41l0,0,.29.31c-.27,0-.52,0-.76,0v.08Z"/><text class="cls-2" transform="translate(58.86 25.06)">A<tspan class="cls-3" x="24.51" y="0">URA</tspan></text><text class="cls-4" transform="translate(56.52 49.86)">CAPI<tspan class="cls-5" x="81.61" y="0">T</tspan><tspan x="100.17" y="0">A</tspan><tspan class="cls-6" x="126.27" y="0">L</tspan></text></g></g></svg>