<?xml version="1.0" encoding="utf-8"?>
<!-- Generator: Adobe Illustrator 22.0.1, SVG Export Plug-In . SVG Version: 6.00 Build 0)  -->
<svg version="1.1" id="Layer_1" xmlns="http://www.w3.org/2000/svg" xmlns:xlink="http://www.w3.org/1999/xlink" x="0px" y="0px"
	 viewBox="0 0 112.2 93.9" style="enable-background:new 0 0 112.2 93.9;" xml:space="preserve">
<style type="text/css">
	.st0{fill:#FFFFFF;}
</style>
<g>
	<path class="st0" d="M112,93.4c-1-1.6-1.9-3.2-2.9-4.8c-5.5-9.2-11.1-18.5-16.6-27.7c0,0-33.2-15-33.9-15c0.1,0.1,0.1,0.2,0.2,0.3
		c5.1,8.7,10.3,17.4,15.4,26.2c0.2,0.4,0,1,0,1L52.4,93.7c20,0,39.8,0,59.8,0C112.1,93.6,112.1,93.5,112,93.4z"/>
	<path class="st0" d="M39.2,68.7c0.1-0.1,0.2-0.2,0.2-0.3c5.5-8.7,11-17.4,16.4-26.1c0.3-0.5,0.6-0.6,1.1-0.6c0,0,32,13.7,33.1,14.5
		c-0.2-0.2-8.3-13.7-11.1-18.4l0.1,0L56.3,0L32.4,39.9l0,0c0,0,0,0.1-0.1,0.1C32.4,40,38.6,68,39.2,68.7z"/>
	<path class="st0" d="M69.6,72.9c0,0-2.6-0.1-3.8-0.1c-4.1,0-8.2,0-12.3-0.1c-1.7,0-3.4,0-5.1,0c-3.8,0-7.7,0-11.5,0
		c-0.2,0-0.4-0.1-0.5-0.2c0,0-7-27.8-6.9-28c0,0.1-0.1,0.2-0.2,0.3l0-0.1L0,93.9l26.8-0.2c5.7,0,11.3,0,17,0c0.9,0,1.8-0.1,2.7-0.1
		L69.6,72.9z"/>
</g>
</svg>
