<svg xmlns="http://www.w3.org/2000/svg" viewBox="0 0 42.9 42.9"><defs><style>.cls-1{fill:#231f20;}</style></defs><title>Asset 53</title><g id="Layer_2" data-name="Layer 2"><g id="Layer_1-2" data-name="Layer 1"><path class="cls-1" d="M31.06,0H11.84A11.85,11.85,0,0,0,0,11.84V31.06A11.85,11.85,0,0,0,11.84,42.9H31.06A11.85,11.85,0,0,0,42.9,31.06V11.84A11.85,11.85,0,0,0,31.06,0Zm8,31.06a8,8,0,0,1-8,8H11.84a8,8,0,0,1-8-8V11.84a8,8,0,0,1,8-8H31.06a8,8,0,0,1,8,8V31.06Z"/><path class="cls-1" d="M21.45,10.4a11.05,11.05,0,1,0,11.05,11A11.05,11.05,0,0,0,21.45,10.4Zm0,18.3a7.25,7.25,0,1,1,7.25-7.25A7.26,7.26,0,0,1,21.45,28.7Z"/><path class="cls-1" d="M33,7.17A2.82,2.82,0,0,0,31,8a2.78,2.78,0,0,0-.82,2,2.8,2.8,0,0,0,5.59,0,2.78,2.78,0,0,0-.82-2A2.81,2.81,0,0,0,33,7.17Z"/></g></g></svg>