<svg xmlns="http://www.w3.org/2000/svg" viewBox="0 0 53.92 40.95"><defs><style>.cls-1{fill:#231f20;}</style></defs><title>Asset 54</title><g id="Layer_2" data-name="Layer 2"><g id="Layer_1-2" data-name="Layer 1"><path class="cls-1" d="M35.3,17.88,23.49,11.42a2.36,2.36,0,0,0-2.38,0,2.38,2.38,0,0,0-1.18,2.07V26.34a2.41,2.41,0,0,0,1.17,2.07,2.49,2.49,0,0,0,1.24.34,2.41,2.41,0,0,0,1.14-.29l11.81-6.35A2.41,2.41,0,0,0,36.55,20,2.37,2.37,0,0,0,35.3,17.88ZM31.62,20l-8.08,4.35V15.56Z"/><path class="cls-1" d="M53.29,9.79h0l.24,0v0c0-.44-.51-4.34-2.42-6.34A8.88,8.88,0,0,0,45.2.63l-.37,0C37.9.08,27.42,0,26.94,0S16,.08,9,.59l-.35,0A8.63,8.63,0,0,0,2.8,3.49C1,5.46.46,9.28.4,9.71v.07c0,.46-.39,4.62-.39,8.73v4c0,4.11.35,8.27.4,8.77s.5,4.26,2.41,6.26a9.07,9.07,0,0,0,6.13,2.74l.49.07.14,0c4.13.39,17.3.58,17.46.58s10.8-.07,17.87-.58H45l.29,0a8.52,8.52,0,0,0,5.83-2.8c1.83-2,2.35-5.79,2.4-6.22v-.07c.06-.76.39-4.72.39-8.73v-4c0-4.11-.35-8.27-.39-8.73Zm-3,8.72v4c0,4-.36,8.21-.38,8.38-.12,1-.65,3.32-1.47,4.21a4.94,4.94,0,0,1-3.55,1.64l-.32,0c-6.88.5-17.13.57-17.55.58-.14,0-13.07-.2-17.06-.57l-.66-.09a5.65,5.65,0,0,1-3.89-1.63A8.9,8.9,0,0,1,4,30.91c0-.17-.38-4.35-.38-8.4v-4c0-3.79.31-7.65.38-8.38A9.64,9.64,0,0,1,5.46,5.92,5.25,5.25,0,0,1,9.12,4.21l.21,0c7-.5,17.53-.57,17.63-.57s10.64.07,17.55.57l.28,0a5.45,5.45,0,0,1,3.7,1.68c.76.8,1.3,3,1.44,4.22C49.94,10.15,50.31,14.41,50.31,18.51Z"/></g></g></svg>