<svg xmlns="http://www.w3.org/2000/svg" viewBox="0 0 42.2 42.2"><defs><style>.cls-1{fill:#231f20;}</style></defs><title>Asset 55</title><g id="Layer_2" data-name="Layer 2"><g id="Layer_1-2" data-name="Layer 1"><path class="cls-1" d="M35.73,0H6.47A6.47,6.47,0,0,0,0,6.47V35.73A6.47,6.47,0,0,0,6.47,42.2h13.9V26.68H15.52V22.63h4.85V16.17A5.67,5.67,0,0,1,26,10.51h5.66v4H27.24a2.83,2.83,0,0,0-2.82,2.83v5.25h7l-.67,4.05H24.42V42.2H35.73a6.47,6.47,0,0,0,6.47-6.47V6.47A6.47,6.47,0,0,0,35.73,0Zm-.52,19.4H27.65V17.78h7.27V7.28H26a8.9,8.9,0,0,0-8.89,8.89V19.4H12.29V29.91h4.85V39H6.47a3.24,3.24,0,0,1-3.24-3.24V6.47A3.24,3.24,0,0,1,6.47,3.23H35.73A3.24,3.24,0,0,1,39,6.47V35.73A3.24,3.24,0,0,1,35.73,39H27.65V29.91h5.81Z"/></g></g></svg>